<?xml version="1.0" standalone="no"?>
<svg viewBox="0 0 200 200" xmlns="http://www.w3.org/2000/svg">
  <path fill="#F1C21B" d="M43.1,-66.2C57.1,-58.1,70.4,-48.2,79.1,-34.5C87.8,-20.9,91.9,-3.5,89.6,12.9C87.2,29.3,78.4,44.8,66,54.7C53.6,64.5,37.5,68.6,21.5,73.5C5.5,78.4,-10.4,83.9,-25.4,81.8C-40.5,79.6,-54.7,69.7,-65.5,56.9C-76.2,44.2,-83.4,28.6,-87,11.8C-90.6,-5.1,-90.6,-23.2,-82.9,-37C-75.3,-50.8,-60,-60.2,-44.9,-67.8C-29.8,-75.3,-14.9,-81,-0.2,-80.7C14.6,-80.4,29.1,-74.2,43.1,-66.2Z" transform="translate(100 100)" />
</svg>
